HIERARCHY
ROOT Hips
{
	OFFSET	0.00	0.00	0.00
	CHANNELS 6 Xposition Yposition Zposition Zrotation Xrotation Yrotation
	JOINT LeftUpLeg
	{
		OFFSET	 0.126116	-0.014019	-0.065224
		CHANNELS 3 Zrotation Xrotation Yrotation
		JOINT LeftLeg
		{
			OFFSET	 0.000000	 0.000000	 0.569914
			CHANNELS 3 Zrotation Xrotation Yrotation
			JOINT LeftFoot
			{
				OFFSET	 0.000000	 0.000000	 0.544423
				CHANNELS 3 Zrotation Xrotation Yrotation
				JOINT LeftToeBase
				{
					OFFSET	 0.000000	 0.000000	 0.207117
					CHANNELS 3 Zrotation Xrotation Yrotation
					End Site
					{
						OFFSET	 0.000000	 0.000000	 0.207117
					}
				}
			}
		}
	}
	JOINT RightUpLeg
	{
		OFFSET	-0.124023	-0.008373	-0.065224
		CHANNELS 3 Zrotation Xrotation Yrotation
		JOINT RightLeg
		{
			OFFSET	 0.000000	 0.000000	 0.570047
			CHANNELS 3 Zrotation Xrotation Yrotation
			JOINT RightFoot
			{
				OFFSET	 0.000000	 0.000000	 0.544354
				CHANNELS 3 Zrotation Xrotation Yrotation
				JOINT RightToeBase
				{
					OFFSET	 0.000000	 0.000000	 0.207540
					CHANNELS 3 Zrotation Xrotation Yrotation
					End Site
					{
						OFFSET	 0.000000	 0.000000	 0.207540
					}
				}
			}
		}
	}
	JOINT Spine
	{
		OFFSET	 0.000184	-0.007763	 0.117403
		CHANNELS 3 Zrotation Xrotation Yrotation
		JOINT Spine1
		{
			OFFSET	 0.000000	 0.000000	 0.137269
			CHANNELS 3 Zrotation Xrotation Yrotation
			JOINT Spine2
			{
				OFFSET	 0.000000	 0.000000	 0.156879
				CHANNELS 3 Zrotation Xrotation Yrotation
				JOINT LeftShoulder
				{
					OFFSET	 0.080501	-0.002496	 0.160144
					CHANNELS 3 Zrotation Xrotation Yrotation
					JOINT LeftArm
					{
						OFFSET	 0.000000	 0.000000	 0.164363
						CHANNELS 3 Zrotation Xrotation Yrotation
						JOINT LeftForeArm
						{
							OFFSET	 0.000000	 0.000000	 0.364576
							CHANNELS 3 Zrotation Xrotation Yrotation
							JOINT LeftHand
							{
								OFFSET	 0.000000	 0.000000	 0.360812
								CHANNELS 3 Zrotation Xrotation Yrotation
								JOINT LeftHandIndex1
								{
									OFFSET	 0.000000	 0.000000	 0.086006
									CHANNELS 3 Zrotation Xrotation Yrotation
									JOINT LeftHandIndex2
									{
										OFFSET	 0.000000	 0.000000	 0.047236
										CHANNELS 3 Zrotation Xrotation Yrotation
										JOINT LeftHandIndex3
										{
											OFFSET	-0.004284	-0.000551	 0.038166
											CHANNELS 3 Zrotation Xrotation Yrotation
											End Site
											{
												OFFSET	-0.004284	-0.000551	 0.038166
											}
										}
									}
								}
							}
						}
					}
				}
				JOINT Neck
				{
					OFFSET	 0.000000	 0.000000	 0.176489
					CHANNELS 3 Zrotation Xrotation Yrotation
					JOINT Head
					{
						OFFSET	 0.000000	-0.001747	 0.077940
						CHANNELS 3 Zrotation Xrotation Yrotation
						End Site
						{
							OFFSET	 0.000000	-0.001747	 0.077940
						}
					}
				}
				JOINT RightShoulder
				{
					OFFSET	-0.080363	 0.000306	 0.159706
					CHANNELS 3 Zrotation Xrotation Yrotation
					JOINT RightArm
					{
						OFFSET	 0.000000	 0.000000	 0.164196
						CHANNELS 3 Zrotation Xrotation Yrotation
						JOINT RightForeArm
						{
							OFFSET	 0.000000	 0.000000	 0.365611
							CHANNELS 3 Zrotation Xrotation Yrotation
							JOINT RightHand
							{
								OFFSET	 0.000000	 0.000000	 0.360648
								CHANNELS 3 Zrotation Xrotation Yrotation
								JOINT RightHandIndex1
								{
									OFFSET	 0.000000	 0.000000	 0.069977
									CHANNELS 3 Zrotation Xrotation Yrotation
									JOINT RightHandIndex2
									{
										OFFSET	 0.000000	 0.000000	 0.052305
										CHANNELS 3 Zrotation Xrotation Yrotation
										JOINT RightHandIndex3
										{
											OFFSET	 0.009002	-0.000782	 0.042196
											CHANNELS 3 Zrotation Xrotation Yrotation
											End Site
											{
												OFFSET	 0.009002	-0.000782	 0.042196
											}
										}
									}
								}
							}
						}
					}
				}
			}
		}
	}
}
MOTION
Frames:    4
Frame Time: 0.03333334
 0.000648	 0.041779	 1.274547	-0.100824	 2.094878	 0.670388	 11.122860	-6.021517	 177.258300	 2.372464	-13.862610	 0.668727	-0.961049	 71.299160	 0.783980	-2.385833	 28.452750	 0.000004	-3.555350	-5.164214	-177.892700	-0.805486	-11.744710	 0.885197	 5.915226	 69.937130	 0.365473	 2.384659	 28.388700	-0.000001	 2.483724	 6.793120	-0.355396	 1.490706	-4.398836	 0.349782	-3.912883	 7.519160	 0.631385	-91.266250	 70.471300	-178.060200	-7.538370	 1.752483	-18.998860	 26.351310	-0.133103	-0.516512	-9.462840	-9.314862	-3.954820	-2.027600	 6.559038	 9.033609	-5.188889	 0.308190	 3.541030	-5.234859	 0.342567	 0.430617	 4.175342	 16.000310	-6.128263	-9.107379	-12.354990	 1.820770	 89.146680	 69.622340	 177.646700	 10.447530	 9.195563	 17.952670	-28.107780	-0.178861	 0.526664	 6.526863	-9.779315	 6.444968	 1.803333	 3.979147	-15.098590	 4.898592	 3.004813	-9.310344	 5.224449	 0.395017	 2.014677
 0.000121	 0.048479	 1.268468	-0.029814	 3.389512	 0.828694	 11.649050	-10.024450	 177.338500	 2.229723	-18.414070	 0.836442	 0.895746	 73.103700	-1.028313	-2.385833	 28.452750	 0.000004	-4.388854	-9.178699	-178.385300	-0.675569	-16.423060	 1.266356	 5.879456	 71.946300	 0.417856	 2.384659	 28.388700	-0.000001	 0.307468	 8.145538	-0.426318	 1.451032	-8.740238	 0.339508	-3.751681	 13.190280	 0.996990	-90.976160	 68.479020	-177.406300	-5.513988	 0.871564	-22.355520	 24.701580	-0.113350	-0.915175	-6.425591	-11.262560	-4.533411	-2.027600	 6.559038	 9.033609	-5.188889	 0.308190	 3.541030	-5.234859	 0.342567	 0.430617	 4.700068	 21.341680	-7.794176	-8.767281	-15.576870	 1.627840	 88.726770	 66.712290	 176.823600	 9.419772	 8.876337	 21.310580	-27.528890	-0.167594	 0.922216	 3.283673	-10.583770	 5.513525	 1.803333	 3.979147	-15.098590	 4.898592	 3.004813	-9.310344	 5.224449	 0.395017	 2.014677
-0.000251	 0.052010	 1.265703	 0.022605	 4.012567	 0.902917	 11.754030	-11.721280	 177.375500	 2.207582	-20.101330	 0.921939	 1.765898	 73.767170	-1.984618	-2.385833	 28.452750	 0.000004	-4.751805	-10.847270	-178.622100	-0.632567	-18.113450	 1.405938	 5.618004	 72.611840	 0.728841	 2.384659	 28.388700	-0.000001	-0.562792	 8.588770	-0.438920	 1.429848	-10.191560	 0.316116	-3.727574	 15.035950	 1.127750	-90.895070	 67.915860	-177.250000	-4.841687	 1.274721	-23.699980	 23.987150	-0.101752	-1.082452	-5.543331	-12.176070	-4.912795	-2.027600	 6.559038	 9.033609	-5.188889	 0.308190	 3.541030	-5.234859	 0.342567	 0.430617	 4.728967	 23.063610	-8.290442	-8.488698	-16.699530	 1.573659	 88.570600	 65.623870	 176.567900	 8.791249	 9.264841	 22.556560	-27.124930	-0.157392	 1.085431	 2.140122	-11.002260	 5.262102	 1.803333	 3.979147	-15.098590	 4.898592	 3.004813	-9.310344	 5.224449	 0.395017	 2.014677
-0.000970	 0.059417	 1.260847	 0.124802	 5.267535	 1.046912	 12.148340	-14.803050	 177.536300	 2.384372	-22.761240	 1.053841	 3.697225	 74.711240	-4.083489	-2.385833	 28.452760	 0.000004	-5.461538	-13.825520	-179.092500	-0.760433	-20.706180	 1.553383	 4.926126	 73.562480	 1.740332	 2.384659	 28.388700	-0.000001	-2.156700	 9.271369	-0.470911	 1.357306	-12.464310	 0.299710	-3.654102	 17.903480	 1.280086	-90.827210	 66.738280	-177.242300	-3.578477	 2.105187	-25.956240	 22.125400	-0.070124	-1.384497	-4.654109	-13.626840	-5.835247	-2.027600	 6.559038	 9.033609	-5.188889	 0.308190	 3.541030	-5.234859	 0.342567	 0.430617	 4.583669	 25.281720	-8.765602	-7.942567	-18.104310	 1.422019	 88.409920	 63.656670	 176.460000	 7.139443	 9.971776	 24.543590	-26.040560	-0.132675	 1.388555	 0.284614	-11.579930	 5.142464	 1.803333	 3.979147	-15.098590	 4.898592	 3.004813	-9.310344	 5.224449	 0.395017	 2.014677
